<svg width="199" height="195" viewBox="0 0 199 195" fill="none" xmlns="http://www.w3.org/2000/svg">
<circle cx="97.5" cy="97.5" r="97.5" fill="white"/>
<path d="M178.335 151.329H24.6609C20.3413 151.329 16.8398 147.827 16.8398 143.508V42.8205C16.8398 38.5014 20.3413 35 24.6609 35H178.335C182.654 35 186.156 38.5014 186.156 42.8205V143.508C186.156 147.827 182.654 151.329 178.335 151.329Z" fill="#828282"/>
<path d="M24.3086 141.575H178.693V44.7534H24.3086V141.575Z" fill="white"/>
<path d="M99.3867 39.8297C99.3867 38.6634 100.332 37.718 101.498 37.718C102.665 37.718 103.61 38.6634 103.61 39.8297C103.61 40.996 102.665 41.9414 101.498 41.9414C100.332 41.9414 99.3867 40.996 99.3867 39.8297Z" fill="#F4F4F6"/>
<path d="M191.894 162.818H11.106C7.18127 162.818 4 159.637 4 155.712V151.329H199V155.712C199 159.637 195.819 162.818 191.894 162.818Z" fill="#828282"/>
<path d="M114.416 154.467H88.5882C87.8016 154.467 87.1641 153.83 87.1641 153.043V151.329H115.84V153.043C115.84 153.83 115.202 154.467 114.416 154.467Z" fill="#F4F4F6"/>
<path d="M178.693 54.7144H24.3086V44.7534H178.693V54.7144Z" fill="#FF9675"/>
<path d="M176 84H61V58H176V84Z" fill="#F4F4F6"/>
<path d="M26 136H59V58H26V136Z" fill="#F4F4F6"/>
<path d="M176 94H61V87H176V94Z" fill="#F4F4F6"/>
<path d="M176 107H61V100H176V107Z" fill="#F4F4F6"/>
<path d="M176 120H61V113H176V120Z" fill="#F4F4F6"/>
<path d="M176 133H61V126H176V133Z" fill="#F4F4F6"/>
</svg>
