<svg width="235" height="259" viewBox="0 0 235 259" fill="none" xmlns="http://www.w3.org/2000/svg">
<circle cx="113.5" cy="125.5" r="97.5" fill="white"/>
<path d="M179.438 44.5242H46.9594C45.6152 44.5242 44.5234 45.6152 44.5234 46.9602V203.569C44.5234 204.915 45.6152 206.005 46.9594 206.005H179.438C180.783 206.005 181.875 204.915 181.875 203.569V46.9602C181.875 45.6152 180.783 44.5242 179.438 44.5242Z" fill="white" stroke="#E2E2E2" stroke-width="0.5"/>
<g filter="url(#filter0_d_2823_2958)">
<path d="M46.9602 44.5486C45.63 44.5486 44.5485 45.6301 44.5485 46.9603V203.57C44.5485 204.9 45.63 205.982 46.9602 205.982H179.438C180.769 205.982 181.851 204.9 181.851 203.57V46.9603C181.851 45.6301 180.769 44.5486 179.438 44.5486H46.9602ZM179.438 206.53H46.9602C45.3281 206.53 44 205.202 44 203.57V46.9603C44 45.3282 45.3281 44.0001 46.9602 44.0001H179.438C181.072 44.0001 182.4 45.3282 182.4 46.9603V203.57C182.4 205.202 181.072 206.53 179.438 206.53Z" fill="#F6F6F9"/>
</g>
<path d="M54.0703 78.6831H85.2827V114.152H54.0703V78.6831Z" fill="#F6F6F9"/>
<path d="M92.7812 79.0888H123.994V114.557H92.7812V79.0888" fill="#F6F6F9"/>
<path d="M132.305 79.8992H163.517V115.368H132.305V79.8992Z" fill="#F6F6F9"/>
<path d="M54.3242 128.919H98.2597V188.667H54.3242V128.919Z" fill="#F6F6F9"/>
<path d="M87.6987 58.8399H165.822C167.305 58.8399 168.508 60.0427 168.508 61.5258V62.9043C168.508 64.3875 167.305 65.5902 165.822 65.5902H87.6987C86.2145 65.5902 85.0117 64.3875 85.0117 62.9043V61.5258C85.0117 60.0427 86.2145 58.8399 87.6987 58.8399" fill="#FFECE9"/>
<path d="M46.4805 69.2263H178.863V76.1677H46.4805V69.2263Z" fill="#F6F6F9"/>
<path d="M54.2148 117.14H87.082V119.062H54.2148V117.14Z" fill="#FFECE9"/>
<path d="M92.0977 117.23H124.964V119.153H92.0977V117.23" fill="#FFECE9"/>
<path d="M132.613 116.958H165.479V118.881H132.613V116.958Z" fill="#FFECE9"/>
<path d="M54.418 120.904H87.283V122.827H54.418V120.904Z" fill="#FFECE9"/>
<path d="M92.2969 120.996H125.165V122.917H92.2969V120.996Z" fill="#FFECE9"/>
<path d="M132.809 120.724L150.363 120.535V122.457L132.809 122.645V120.724" fill="#FFECE9"/>
<path d="M54.1211 125.065L75.1875 125.031V126.954L54.1211 126.988V125.065Z" fill="#FFECE9"/>
<path d="M108.402 134.585H157.385V141.822H108.402V134.585Z" fill="#FFECE9"/>
<path d="M148.738 141.483C148.587 141.483 148.465 141.359 148.465 141.209V135.286C148.465 135.134 148.587 135.012 148.738 135.012C148.89 135.012 149.012 135.134 149.012 135.286V141.209C149.012 141.359 148.89 141.483 148.738 141.483Z" fill="#F6F6F9"/>
<path d="M152.13 136.91L153.53 138.648L154.646 136.832L152.13 136.91ZM153.561 139.396C153.478 139.396 153.4 139.359 153.347 139.295L151.358 136.825C151.292 136.745 151.279 136.634 151.322 136.539C151.365 136.445 151.458 136.382 151.562 136.379L155.137 136.267C155.245 136.278 155.333 136.317 155.383 136.404C155.433 136.492 155.432 136.6 155.379 136.685L153.794 139.265C153.748 139.342 153.667 139.39 153.578 139.395L153.561 139.396" fill="#F6F6F9"/>
<path d="M65.2777 85.8545C65.2777 85.8545 66.8708 87.3582 69.0812 87.5349C71.2926 87.7115 72.444 85.6778 72.444 85.6778C72.444 85.6778 74.6544 86.0311 75.9814 87.0922C77.3085 88.1542 80.8469 92.7537 80.8469 92.7537L77.6618 96.2038L74.301 94.0808L75.5387 106.023H63.4196L63.6856 94.0808L61.7392 96.4688L57.3164 94.6118C57.3164 94.6118 59.6172 89.5696 60.7676 88.3309C61.9169 87.0922 65.2777 85.8545 65.2777 85.8545" fill="#08A0F7"/>
<path d="M101.329 85.04H112.709L118.435 107.045L96.5 106.975L101.329 85.04" fill="#FCEBBE"/>
<path d="M101.418 83.2569H112.496V84.9394H101.418V83.2569Z" fill="#FF6A3A"/>
<path d="M107.263 82.8512C107.688 82.8512 108.031 83.1953 108.031 83.6195V84.5532C108.031 84.9774 107.688 85.3204 107.263 85.3204C106.839 85.3204 106.496 84.9774 106.496 84.5532V83.6195C106.496 83.1953 106.839 82.8512 107.263 82.8512Z" fill="white"/>
<path d="M151.218 85.8093L159.806 85.5638C159.806 85.5638 158.395 89.1218 159.009 90.9008C159.622 92.6798 159.745 96.1772 159.438 97.1581C159.131 98.14 152.751 98.0178 150.482 97.9562C148.212 97.8946 145.45 98.8765 141.77 98.9987C138.089 99.122 135.635 98.5088 135.635 98.5088C135.635 98.5088 135.389 97.2813 136.74 96.7904C138.089 96.2994 142.137 95.6256 143.856 94.3982C145.574 93.1708 148.703 91.6989 149.316 90.5331C149.929 89.3673 151.218 85.8093 151.218 85.8093" fill="#FF6A3A"/>
<path d="M135.513 98.3249C135.513 98.3249 134.654 101.454 135.329 102.558C136.004 103.662 138.765 103.846 141.096 103.784C143.427 103.723 146.739 103.416 148.825 103.109C150.912 102.802 155.903 103.219 157.191 102.974C158.479 102.729 159.431 101.963 159.553 100.612C159.675 99.2627 160.243 97.6388 159.261 97.2701C158.28 96.9024 155.847 97.5608 152.685 97.5977C150.205 97.6255 146.907 98.3445 143.348 98.6506C139.79 98.9577 135.513 98.3249 135.513 98.3249" fill="white"/>
<path d="M150.02 93.8487C149.934 93.8487 149.849 93.8086 149.796 93.7326L148.16 91.4267C148.072 91.3035 148.101 91.1319 148.226 91.0446C148.349 90.9573 148.519 90.9861 148.608 91.1103L150.243 93.4152C150.33 93.5385 150.301 93.71 150.178 93.7984C150.13 93.8323 150.074 93.8487 150.02 93.8487Z" fill="#F6F6F9"/>
<path d="M148.222 95.147C148.13 95.147 148.041 95.1018 147.988 95.0186L146.311 92.3347C146.231 92.2073 146.27 92.0378 146.398 91.9577C146.526 91.8797 146.695 91.9167 146.776 92.045L148.454 94.7279C148.534 94.8563 148.495 95.0258 148.366 95.1059C148.321 95.1347 148.271 95.147 148.222 95.147" fill="#F6F6F9"/>
<path d="M146.292 96.4052C146.195 96.4052 146.102 96.3548 146.051 96.2644L144.543 93.5395C144.469 93.407 144.517 93.2395 144.649 93.1666C144.782 93.0937 144.948 93.1409 145.022 93.2734L146.531 95.9984C146.605 96.1309 146.557 96.2973 146.424 96.3712C146.383 96.3938 146.337 96.4052 146.292 96.4052Z" fill="#F6F6F9"/>
<path d="M143.985 97.118C143.878 97.118 143.776 97.0544 143.732 96.9486L142.81 94.7269C142.752 94.5872 142.819 94.427 142.959 94.3684C143.097 94.3099 143.259 94.3777 143.317 94.5174L144.238 96.739C144.296 96.8787 144.23 97.039 144.09 97.0975C144.056 97.1119 144.021 97.118 143.985 97.118" fill="#F6F6F9"/>
<path d="M152.832 97.7333C152.703 97.7055 152.65 97.6152 152.673 97.5279C152.705 97.4087 153.459 94.6067 155.179 93.4994C156.887 92.3973 159.146 92.459 159.243 92.4621C159.334 92.4641 159.404 92.5401 159.402 92.6315C159.399 92.7219 159.333 92.7918 159.232 92.7897C159.213 92.7918 156.978 92.7301 155.357 93.7758C153.743 94.8152 152.999 97.5833 152.991 97.6111C152.972 97.685 152.905 97.7333 152.832 97.7333" fill="#F6F6F9"/>
<path d="M141.776 98.8734C141.711 98.8734 141.649 98.8354 141.624 98.7717L140.45 95.9071C140.416 95.8228 140.456 95.7273 140.54 95.6934C140.622 95.6575 140.72 95.6985 140.754 95.7828L141.928 98.6474C141.963 98.7317 141.921 98.8272 141.838 98.8611C141.818 98.8703 141.796 98.8734 141.776 98.8734Z" fill="#F6F6F9"/>
<path d="M150.579 87.5873C150.49 87.5873 150.416 87.5174 150.414 87.4291C150.411 87.3377 150.482 87.2617 150.572 87.2586L159.242 86.9833C159.331 86.9833 159.404 87.0521 159.406 87.1415C159.409 87.2329 159.338 87.3089 159.247 87.311L150.579 87.5873" fill="#F6F6F9"/>
<path d="M73.5571 132.27L77.8947 139.115L82.2323 132.068C82.2323 132.068 87.181 133.287 88.3324 134.508C88.7145 134.911 90.6157 135.352 90.1905 136.616C89.3308 139.17 85.4184 143.114 85.4184 143.114L82.8424 150.978L88.4002 177.817L67.797 178.291L72.2023 150.773L69.2873 142.505C69.2873 142.505 65.5702 139.346 64.9179 136.926C64.6519 135.939 66.738 135.027 66.9157 134.575C67.5258 133.016 73.5571 132.27 73.5571 132.27" fill="#FBA63C"/>
<path d="M72.1016 150.316H82.9645V152.079H72.1016V150.316Z" fill="white"/>
<path d="M77.7291 149.957C77.3192 149.957 76.9854 150.29 76.9854 150.7V151.883C76.9854 152.291 77.3192 152.625 77.7291 152.625C78.1399 152.625 78.4748 152.291 78.4748 151.883V150.7C78.4748 150.29 78.1399 149.957 77.7291 149.957ZM77.7291 152.843C77.198 152.843 76.7656 152.412 76.7656 151.883V150.7C76.7656 150.169 77.198 149.738 77.7291 149.738C78.2611 149.738 78.6936 150.169 78.6936 150.7V151.883C78.6936 152.412 78.2611 152.843 77.7291 152.843Z" fill="#F6F6F9"/>
<path d="M188.315 147.889H122.429C121.083 147.889 119.992 148.981 119.992 150.326V183.514C119.992 184.859 121.083 185.951 122.429 185.951H188.315C189.659 185.951 190.751 184.859 190.751 183.514V150.326C190.751 148.981 189.659 147.889 188.315 147.889Z" fill="white" stroke="#E2E2E2" stroke-width="0.5"/>
<path d="M165.796 163.068C165.783 162.949 165.518 160.116 167.206 158.148C168.148 157.05 169.494 156.447 171.21 156.359C172.85 156.266 174.175 156.721 175.157 157.691C177.013 159.525 176.914 162.545 176.909 162.674L175.813 162.629C175.814 162.604 175.894 159.957 174.381 158.467C173.63 157.726 172.576 157.384 171.267 157.453C169.866 157.528 168.781 158 168.043 158.858C166.66 160.463 166.884 162.933 166.886 162.958L165.796 163.068" fill="#FF6A3A"/>
<path d="M164.545 163.903C164.106 163.903 163.75 164.259 163.75 164.697L162.031 175.258C162.038 175.607 162.395 175.965 162.832 175.965L180.564 175.768C181.007 175.768 181.364 175.413 181.364 174.974L179.749 164.783C179.743 164.259 179.387 163.903 178.947 163.903H164.545ZM162.839 177.061C161.79 177.061 160.941 176.212 160.941 175.169L162.66 164.608C162.653 163.654 163.501 162.806 164.545 162.806H178.947C179.991 162.806 180.84 163.654 180.84 164.697L182.454 174.889C182.461 176.018 181.612 176.866 180.569 176.866L162.839 177.061" fill="#FF6A3A"/>
<path d="M169.732 174.769L167.242 168.944L168.251 168.514L170.031 172.679L176.04 165.364L176.887 166.059L169.732 174.769" fill="#FF6A3A"/>
<path d="M131.533 162.332H152.363C154.524 162.332 156.276 164.084 156.276 166.245C156.276 168.406 154.524 170.158 152.363 170.158H131.533C129.372 170.158 127.621 168.406 127.621 166.245C127.621 164.084 129.372 162.332 131.533 162.332Z" fill="#FF6A3A"/>
<path d="M78.7852 110.633C78.7852 108.961 80.144 107.605 81.8213 107.605C83.4997 107.605 84.8586 108.961 84.8586 110.633C84.8586 112.306 83.4997 113.662 81.8213 113.662C80.144 113.662 78.7852 112.306 78.7852 110.633Z" fill="#FCBEBE"/>
<path d="M80.9141 109.252C80.7929 109.252 80.6738 109.292 80.5495 109.372C80.2496 109.569 80.1017 109.802 80.0965 110.086C80.0811 110.978 81.4452 112.069 81.816 112.348C82.1857 112.058 83.5693 110.911 83.5487 110.022C83.5426 109.761 83.4111 109.548 83.1461 109.371C82.9766 109.26 82.8143 109.223 82.6438 109.261C82.3141 109.336 82.0399 109.688 81.9618 109.818C81.933 109.865 81.8745 109.897 81.8273 109.892C81.7718 109.891 81.7215 109.863 81.6937 109.815C81.6937 109.815 81.4256 109.357 81.0436 109.267C81.0004 109.257 80.9573 109.252 80.9141 109.252V109.252ZM81.817 112.699C81.7862 112.699 81.7543 112.689 81.7276 112.67C81.6475 112.613 79.7648 111.271 79.7853 110.079C79.7925 109.692 79.9928 109.367 80.379 109.112C80.6194 108.955 80.8679 108.904 81.1175 108.965C81.4421 109.043 81.6896 109.292 81.8303 109.469C81.9782 109.289 82.2391 109.034 82.576 108.958C82.8297 108.901 83.0783 108.953 83.3187 109.113C83.6689 109.346 83.8507 109.65 83.8589 110.015C83.8877 111.198 81.9906 112.609 81.9094 112.668C81.8817 112.688 81.8499 112.699 81.817 112.699" fill="#F6F6F9"/>
<path d="M93.0733 183.225C92.9531 183.225 92.8329 183.265 92.7086 183.347C92.4087 183.544 92.2608 183.777 92.2557 184.059C92.2403 184.951 93.6053 186.042 93.9761 186.322C94.3469 186.032 95.7284 184.885 95.7079 183.996C95.7017 183.735 95.5702 183.523 95.3052 183.347C95.1368 183.234 94.9735 183.198 94.8029 183.237C94.4732 183.31 94.199 183.662 94.1209 183.791C94.0932 183.838 94.0429 183.865 93.9884 183.865C93.933 183.865 93.8816 183.837 93.8529 183.788C93.8529 183.788 93.5848 183.332 93.2037 183.242C93.1606 183.231 93.1164 183.225 93.0733 183.225V183.225ZM93.9771 186.672C93.9463 186.672 93.9145 186.662 93.8878 186.644C93.8077 186.588 91.9249 185.245 91.9455 184.053C91.9527 183.666 92.1519 183.341 92.5392 183.087C92.7795 182.93 93.027 182.878 93.2777 182.94C93.6022 183.017 93.8488 183.264 93.9895 183.443C94.1384 183.262 94.3983 183.008 94.7352 182.932C94.9899 182.875 95.2385 182.928 95.4778 183.087C95.8291 183.321 96.0109 183.625 96.0191 183.989C96.0458 185.173 94.1507 186.582 94.0696 186.642C94.0418 186.662 94.01 186.672 93.9771 186.672" fill="#F6F6F9"/>
<path d="M117.297 110.633C117.297 108.961 118.657 107.605 120.333 107.605C122.011 107.605 123.37 108.961 123.37 110.633C123.37 112.306 122.011 113.662 120.333 113.662C118.657 113.662 117.297 112.306 117.297 110.633Z" fill="#FCBEBE"/>
<path d="M119.426 109.252C119.305 109.252 119.186 109.292 119.062 109.372C118.762 109.569 118.613 109.802 118.608 110.086C118.593 110.978 119.957 112.069 120.328 112.348C120.698 112.058 122.082 110.911 122.06 110.022C122.054 109.761 121.923 109.548 121.658 109.371C121.489 109.26 121.325 109.223 121.156 109.261C120.826 109.336 120.552 109.688 120.474 109.818C120.446 109.864 120.394 109.892 120.34 109.892C120.287 109.883 120.233 109.863 120.205 109.815C120.205 109.815 119.937 109.357 119.556 109.267C119.513 109.257 119.469 109.252 119.426 109.252V109.252ZM120.33 112.699C120.298 112.699 120.266 112.689 120.24 112.67C120.159 112.613 118.276 111.271 118.297 110.079C118.304 109.692 118.505 109.367 118.892 109.112C119.132 108.955 119.38 108.904 119.629 108.965C119.954 109.043 120.201 109.292 120.343 109.469C120.49 109.289 120.751 109.034 121.088 108.958C121.34 108.901 121.592 108.953 121.83 109.113C122.181 109.346 122.362 109.65 122.371 110.015C122.399 111.198 120.502 112.609 120.421 112.668C120.394 112.688 120.362 112.699 120.33 112.699" fill="#F6F6F9"/>
<path d="M156.035 110.633C156.035 108.961 157.395 107.605 159.071 107.605C160.75 107.605 162.109 108.961 162.109 110.633C162.109 112.306 160.75 113.662 159.071 113.662C157.395 113.662 156.035 112.306 156.035 110.633Z" fill="#FCBEBE"/>
<path d="M158.162 109.252C158.042 109.252 157.923 109.292 157.798 109.372C157.499 109.569 157.351 109.802 157.346 110.085C157.33 110.978 158.695 112.069 159.065 112.348C159.436 112.058 160.818 110.911 160.798 110.022C160.792 109.761 160.66 109.548 160.395 109.371C160.226 109.26 160.062 109.223 159.893 109.261C159.562 109.336 159.289 109.688 159.211 109.816C159.183 109.865 159.148 109.897 159.076 109.892C159.022 109.891 158.971 109.863 158.943 109.815C158.943 109.815 158.676 109.357 158.294 109.267C158.249 109.257 158.206 109.252 158.162 109.252V109.252ZM159.067 112.699C159.035 112.699 159.004 112.689 158.977 112.67C158.896 112.613 157.014 111.271 157.035 110.079C157.042 109.691 157.242 109.367 157.628 109.112C157.869 108.953 158.118 108.903 158.368 108.965C158.692 109.043 158.939 109.292 159.08 109.469C159.228 109.289 159.488 109.034 159.825 108.958C160.077 108.901 160.327 108.953 160.568 109.113C160.918 109.346 161.1 109.65 161.109 110.015C161.136 111.198 159.24 112.609 159.158 112.668C159.132 112.688 159.1 112.699 159.067 112.699" fill="#F6F6F9"/>
<defs>
<filter id="filter0_d_2823_2958" x="0" y="6.10352e-05" width="234.398" height="258.53" filterUnits="userSpaceOnUse" color-interpolation-filters="sRGB">
<feFlood flood-opacity="0" result="BackgroundImageFix"/>
<feColorMatrix in="SourceAlpha" type="matrix" values="0 0 0 0 0 0 0 0 0 0 0 0 0 0 0 0 0 0 127 0" result="hardAlpha"/>
<feOffset dx="4" dy="4"/>
<feGaussianBlur stdDeviation="24"/>
<feColorMatrix type="matrix" values="0 0 0 0 0 0 0 0 0 0 0 0 0 0 0 0 0 0 0.06 0"/>
<feBlend mode="normal" in2="BackgroundImageFix" result="effect1_dropShadow_2823_2958"/>
<feBlend mode="normal" in="SourceGraphic" in2="effect1_dropShadow_2823_2958" result="shape"/>
</filter>
</defs>
</svg>
