<svg width="183" height="183" viewBox="0 0 183 183" fill="none" xmlns="http://www.w3.org/2000/svg">
<g clip-path="url(#clip0_2785_2577)">
<path d="M0 91.5C0 142.034 40.9659 183 91.5 183C142.034 183 183 142.034 183 91.5C183 40.966 142.034 1.52588e-05 91.5 1.52588e-05C40.9659 1.52588e-05 0 40.966 0 91.5Z" fill="white"/>
<path d="M147.347 72.3418C147.347 72.3418 141.697 73.3779 139.207 73.8036C136.716 74.2296 125.212 70.3105 122.535 68.9028C119.858 67.4952 117.79 64.5361 119.812 63.8447C119.812 63.8447 117.186 63.2807 116.292 61.2538C115.398 59.2269 120.241 58.9981 120.241 58.9981L120.192 58.2087C120.192 58.2087 117.494 59.3546 115.581 58.167C113.669 56.9789 114.024 54.3565 117.781 52.4365L116.265 50.567C116.265 50.567 113.335 49.671 112.345 48.3845C111.355 47.0976 114.358 44.581 114.358 44.581L119.195 43.9142L144.328 55.8293L147.347 72.3418Z" fill="#DB8F8E"/>
<path d="M119.014 57.9927L115.167 57.8551C114.697 57.4273 114.446 56.8823 114.446 56.2802C114.446 55.2602 115.168 54.0765 116.766 53.0243L119.014 57.9927ZM115.541 50.3144C114.607 49.9616 113.023 49.2644 112.345 48.3845C112.205 48.2022 112.145 47.9955 112.145 47.7744C112.145 47.0537 112.786 46.1834 113.378 45.5337L115.541 50.3144Z" fill="#FAC99E"/>
<path d="M127.462 77.6817L145.801 71.6281L135.02 20.2603L116.582 23.8779L127.462 77.6817Z" fill="#3C4838"/>
<path d="M133.563 22.1632C133.563 22.1632 118.216 25.1808 118.126 25.0553C118.035 24.9294 128.499 74.9707 128.499 74.9707L144.005 70.3167L133.563 22.1632ZM132.849 23.2487L142.916 69.6743L129.201 73.7911C125.947 58.2266 120.301 31.1781 119.222 25.8415C119.618 25.7745 120.115 25.6841 120.742 25.5692C122.029 25.3342 123.816 24.9971 126.053 24.5678C128.76 24.0481 131.486 23.5155 132.849 23.2487Z" fill="#141311"/>
<path d="M132.21 63.1687C130.984 64.0486 130.703 65.7556 131.583 66.9813C132.463 68.2074 134.17 68.4881 135.396 67.6083C136.622 66.7288 136.902 65.0218 136.023 63.7957C135.143 62.5696 133.436 62.2888 132.21 63.1687Z" fill="#141311"/>
<path d="M125.58 31.5082C124.481 32.2966 124.229 33.8265 125.018 34.9256C125.806 36.0243 127.336 36.2758 128.435 35.4874C129.534 34.6987 129.785 33.1688 128.997 32.0701C128.209 30.9713 126.679 30.7199 125.58 31.5082Z" fill="#141311"/>
<path d="M141.394 69.4207C141.443 69.4895 141.489 69.4994 141.547 69.5122C141.666 69.5378 141.791 69.4903 141.863 69.3925C141.942 69.2864 141.943 69.1459 141.874 69.0408C141.663 68.4073 140.203 61.7102 139.256 57.2809C139.221 57.1136 139.056 57.0071 138.889 57.043C138.722 57.0785 138.616 57.2432 138.651 57.4101C138.651 57.4101 139.284 60.3699 139.933 63.3334C140.984 68.1346 141.213 69.1693 141.394 69.4207Z" fill="#141311"/>
<path d="M140.183 69.9606C140.232 70.0297 140.278 70.0396 140.336 70.0521C140.455 70.0777 140.58 70.0301 140.652 69.9324C140.731 69.8262 140.731 69.6857 140.664 69.581C140.452 68.9482 138.992 62.2504 138.045 57.8203C138.011 57.6531 137.845 57.5466 137.678 57.5824C137.511 57.6179 137.405 57.7826 137.441 57.9495C137.441 57.9495 138.073 60.9094 138.722 63.8729C139.773 68.6744 140.003 69.7095 140.183 69.9606Z" fill="#141311"/>
<path d="M129.313 46.9853C129.892 47.191 130.353 47.6682 130.948 47.8238C131.771 48.0394 132.604 47.5943 133.439 47.4303C134.879 47.1474 136.462 47.7927 137.278 49.0118C137.645 49.5612 137.857 50.1966 138.066 50.8232C138.243 51.3564 138.421 51.8893 138.598 52.4226C138.792 53.006 138.887 53.8002 138.952 54.4206C139.005 54.9216 138.697 55.5061 138.394 55.8809C137.899 56.4929 137.203 56.9013 136.55 57.3405C135.897 57.7794 135.247 58.2918 134.926 59.0106C134.799 59.2942 134.728 59.602 134.583 59.8765C134.437 60.151 134.19 60.4007 133.882 60.4321C133.771 60.4435 133.66 60.4263 133.55 60.4087C133.436 60.3911 133.322 60.3736 133.209 60.3867C132.863 60.4274 132.615 60.741 132.464 61.0554C132.314 61.3698 132.214 61.719 131.978 61.9748C131.607 62.3771 131.003 62.4455 130.457 62.4437C130.091 62.4426 129.715 62.4195 129.38 62.2724C129.267 62.2226 129.16 62.1545 129.065 62.074C128.392 63.5999 127.463 65.7673 127.313 66.6852L125.294 57.1729C125.294 57.1729 128.076 58.4473 129.434 58.9846C129.539 58.7277 129.693 58.4828 129.903 58.3152C129.18 57.8123 128.07 56.8651 127.074 55.277C126.869 54.9506 126.694 54.6365 126.543 54.3371C125.462 53.2519 124.024 51.7554 124.024 51.7554C124.024 51.7554 123.757 50.8524 123.873 50.8162C123.955 50.791 125.173 51.998 125.908 52.7355C125.57 51.5544 125.673 50.8455 125.721 50.8707C125.797 50.911 126.058 52.8654 128.216 55.0768C129.7 56.5976 131.382 57.5481 132.288 57.9935C132.61 57.7468 132.76 57.3094 133.016 56.98C133.303 56.6111 133.727 56.3805 134.106 56.1067C134.786 55.6141 135.365 54.9063 135.472 54.0732C135.579 53.2402 135.085 52.3044 134.265 52.1195C134.054 52.072 133.831 52.0731 133.61 52.0742C133.285 52.076 132.963 52.0778 132.683 51.923C132.211 51.662 132.057 51.0673 131.724 50.6427C131.198 49.9715 130.284 49.7826 129.49 49.4723C128.696 49.1619 127.865 48.4936 127.981 47.6485C128.009 47.441 128.101 47.2378 128.258 47.0995C128.537 46.855 128.963 46.8612 129.313 46.9853Z" fill="#141311"/>
<path d="M134.733 43.7824C134.804 43.8809 134.929 43.9325 135.054 43.9036C135.221 43.8652 135.325 43.699 135.286 43.5325L132.564 31.7806C132.525 31.6133 132.359 31.5105 132.193 31.5489C132.026 31.5877 131.922 31.7538 131.961 31.92L134.684 43.6719C134.693 43.7133 134.71 43.7502 134.733 43.7824Z" fill="#141311"/>
<path d="M133.397 44.136C133.468 44.2344 133.593 44.286 133.719 44.2571C133.885 44.2183 133.989 44.0522 133.95 43.886L131.228 32.1341C131.189 31.9668 131.023 31.864 130.857 31.9024C130.69 31.9409 130.587 32.107 130.625 32.2736L133.347 44.0254C133.357 44.0664 133.374 44.1038 133.397 44.136Z" fill="#141311"/>
<path d="M132.285 30.7905L134.092 30.3682L132.651 24.2033L130.844 24.6256L132.285 30.7905Z" fill="#141311"/>
<path d="M127.687 78.1824L145.562 70.8686L131.236 20.3745L113.094 25.2654L127.687 78.1824Z" fill="#53614F"/>
<path d="M129.914 22.3744C129.914 22.3744 114.814 26.4516 114.715 26.3323C114.617 26.2133 128.534 75.4059 128.534 75.4059L143.678 69.6853L129.914 22.3744ZM129.277 23.5071L142.547 69.1206L129.152 74.1806C124.823 58.8799 117.311 32.2893 115.864 27.0405C116.254 26.9464 116.743 26.8213 117.362 26.6631C118.629 26.3392 120.388 25.8788 122.589 25.295C125.254 24.5887 127.936 23.868 129.277 23.5071Z" fill="#141311"/>
<path d="M131.415 63.3744C130.253 64.3373 130.091 66.0597 131.054 67.2214C132.017 68.3835 133.74 68.5449 134.901 67.5819C136.063 66.619 136.225 64.8966 135.262 63.7349C134.299 62.5729 132.577 62.4115 131.415 63.3744Z" fill="#141311"/>
<path d="M122.597 32.252C121.556 33.1146 121.411 34.6584 122.274 35.6997C123.137 36.7409 124.681 36.8855 125.722 36.0229C126.763 35.1598 126.908 33.616 126.045 32.5748C125.182 31.5335 123.638 31.3889 122.597 32.252Z" fill="#141311"/>
<path d="M141.013 68.9731C141.067 69.0383 141.113 69.0448 141.172 69.0536C141.292 69.0708 141.414 69.0148 141.479 68.9124C141.55 68.8007 141.541 68.6609 141.466 68.5606C141.21 67.9432 139.289 61.364 138.036 57.0111C137.989 56.8468 137.818 56.752 137.653 56.7992C137.489 56.8464 137.395 57.0181 137.442 57.1821C137.442 57.1821 138.279 60.0907 139.132 63.0018C140.514 67.7185 140.815 68.7348 141.013 68.9731Z" fill="#141311"/>
<path d="M139.841 69.5956C139.895 69.6612 139.941 69.6677 140 69.6762C140.12 69.6937 140.242 69.6377 140.307 69.5353C140.378 69.4236 140.369 69.2834 140.294 69.1835C140.039 68.5672 138.117 61.9869 136.864 57.6337C136.818 57.469 136.646 57.3742 136.482 57.4217C136.318 57.469 136.223 57.6403 136.27 57.8042C136.27 57.8042 137.107 60.7132 137.96 63.6244C139.343 68.3414 139.643 69.3577 139.841 69.5956Z" fill="#141311"/>
<path d="M127.399 47.4318C127.99 47.5969 128.484 48.0408 129.088 48.1547C129.924 48.3124 130.724 47.8106 131.546 47.5888C132.962 47.2067 134.587 47.7403 135.485 48.8998C135.89 49.4221 136.146 50.0414 136.397 50.6519C136.612 51.1716 136.825 51.6909 137.039 52.2103C137.273 52.7787 137.423 53.5649 137.531 54.179C137.619 54.6753 137.353 55.2796 137.076 55.6749C136.625 56.3197 135.96 56.7754 135.338 57.2589C134.717 57.742 134.104 58.2983 133.834 59.0377C133.728 59.3297 133.678 59.6416 133.552 59.9256C133.426 60.2096 133.197 60.4757 132.891 60.5284C132.782 60.5474 132.67 60.5379 132.559 60.5284C132.444 60.5185 132.329 60.509 132.217 60.5302C131.875 60.5946 131.649 60.9248 131.521 61.2487C131.393 61.5729 131.317 61.928 131.1 62.1999C130.757 62.6267 130.16 62.7368 129.614 62.7734C129.249 62.7976 128.873 62.8009 128.529 62.6772C128.412 62.6354 128.301 62.5751 128.2 62.5015C127.635 64.0702 126.859 66.2973 126.774 67.2229L124.098 57.8742C124.098 57.8742 126.962 58.9524 128.354 59.3938C128.441 59.1303 128.577 58.8752 128.776 58.6933C128.019 58.2416 126.846 57.3742 125.742 55.859C125.515 55.5475 125.318 55.2466 125.147 54.9582C123.993 53.951 122.454 52.558 122.454 52.558C122.454 52.558 122.125 51.6759 122.239 51.6317C122.318 51.6009 123.618 52.7201 124.401 53.4049C123.983 52.2502 124.036 51.5354 124.086 51.5574C124.165 51.5925 124.56 53.5242 126.866 55.5801C128.453 56.9939 130.197 57.8251 131.132 58.2065C131.437 57.9378 131.555 57.4913 131.788 57.1447C132.049 56.7568 132.455 56.4976 132.814 56.1979C133.459 55.6591 133.987 54.9128 134.036 54.0743C134.085 53.2358 133.527 52.3366 132.696 52.2092C132.482 52.1766 132.261 52.1931 132.041 52.2096C131.716 52.2341 131.394 52.2582 131.104 52.1236C130.615 51.8959 130.42 51.3132 130.059 50.9128C129.487 50.2797 128.563 50.1545 127.749 49.9005C126.935 49.6461 126.059 49.0371 126.116 48.1861C126.13 47.9771 126.207 47.7678 126.354 47.6192C126.616 47.3557 127.041 47.3323 127.399 47.4318Z" fill="#141311"/>
<path d="M132.588 43.8597C132.665 43.953 132.794 43.9958 132.917 43.9581C133.08 43.9083 133.172 43.7352 133.122 43.572L129.589 32.0375C129.539 31.8735 129.366 31.7824 129.203 31.8325C129.04 31.8827 128.948 32.0554 128.998 32.2187L132.531 43.7528C132.543 43.7934 132.563 43.8293 132.588 43.8597Z" fill="#141311"/>
<path d="M131.279 44.3051C131.357 44.3984 131.485 44.4412 131.608 44.4035C131.771 44.3537 131.863 44.1806 131.813 44.0174L128.281 32.4833C128.23 32.3189 128.058 32.2282 127.894 32.278C127.731 32.3281 127.639 32.5008 127.689 32.6641L131.222 44.1986C131.234 44.2388 131.254 44.2747 131.279 44.3051Z" fill="#141311"/>
<path d="M129.241 31.0694L131.015 30.5223L129.148 24.4723L127.375 25.0194L129.241 31.0694Z" fill="#141311"/>
<path d="M128.023 78.6136L145.404 70.1937L127.94 20.6973L110.141 26.7155L128.023 78.6136Z" fill="#7D9175"/>
<path d="M126.745 22.7759C126.745 22.7759 111.931 27.7915 111.825 27.6788C111.719 27.5664 128.693 75.7895 128.693 75.7895L143.448 69.1309L126.745 22.7759ZM126.181 23.9463L142.284 68.6382L129.232 74.5279C123.953 59.5288 114.789 33.4612 113.016 28.3134C113.4 28.1952 113.879 28.0397 114.487 27.8431C115.731 27.4402 117.458 26.8707 119.618 26.15C122.233 25.2778 124.865 24.3907 126.181 23.9463Z" fill="#2E302A"/>
<path d="M130.814 63.601C129.714 64.6349 129.661 66.3639 130.695 67.463C131.729 68.5625 133.458 68.6155 134.557 67.5816C135.657 66.548 135.71 64.8186 134.676 63.7195C133.642 62.6204 131.913 62.5674 130.814 63.601Z" fill="#2E302A"/>
<path d="M120.06 33.0923C119.075 34.0186 119.027 35.5687 119.954 36.5536C120.88 37.5388 122.43 37.5864 123.415 36.6601C124.401 35.7333 124.448 34.1837 123.522 33.1984C122.595 32.2132 121.046 32.1656 120.06 33.0923Z" fill="#2E302A"/>
<path d="M140.739 68.587C140.797 68.6488 140.844 68.6525 140.903 68.6573C141.024 68.6671 141.142 68.6038 141.201 68.4973C141.265 68.3817 141.247 68.2422 141.166 68.1471C140.872 67.5472 138.541 61.1008 137.019 56.8351C136.962 56.6741 136.785 56.5902 136.623 56.6477C136.462 56.7052 136.379 56.8823 136.436 57.043C136.436 57.043 137.454 59.8938 138.488 62.7456C140.163 67.3664 140.527 68.3619 140.739 68.587Z" fill="#2E302A"/>
<path d="M139.614 69.282C139.672 69.3438 139.719 69.3475 139.778 69.3523C139.899 69.3621 140.017 69.2985 140.076 69.1923C140.14 69.0763 140.122 68.9372 140.04 68.8421C139.747 68.2429 137.417 61.7962 135.894 57.5297C135.837 57.3683 135.659 57.2849 135.498 57.3423C135.338 57.3998 135.254 57.5769 135.311 57.7376C135.311 57.7376 136.329 60.5884 137.363 63.4403C139.038 68.0614 139.402 69.0569 139.614 69.282Z" fill="#2E302A"/>
<path d="M125.805 47.9416C126.406 48.0694 126.926 48.4811 127.536 48.5573C128.381 48.6623 129.148 48.1111 129.954 47.8384C131.344 47.3681 132.999 47.7989 133.968 48.8998C134.404 49.3958 134.699 49.9975 134.988 50.5915C135.234 51.0966 135.48 51.6013 135.726 52.1064C135.996 52.659 136.194 53.4342 136.341 54.0403C136.459 54.53 136.231 55.15 135.981 55.5618C135.571 56.2337 134.935 56.73 134.345 57.2516C133.756 57.7731 133.179 58.3664 132.956 59.1215C132.867 59.4194 132.837 59.7334 132.729 60.0248C132.621 60.3165 132.41 60.5961 132.108 60.6682C132 60.6938 131.888 60.6916 131.776 60.6891C131.661 60.6865 131.546 60.6839 131.435 60.7121C131.097 60.7981 130.893 61.1414 130.786 61.473C130.678 61.8046 130.625 62.1637 130.425 62.4488C130.11 62.896 129.52 63.0435 128.978 63.1142C128.615 63.1614 128.24 63.1881 127.889 63.086C127.77 63.0516 127.655 62.9985 127.549 62.9315C127.084 64.5324 126.449 66.8038 126.422 67.7331L123.165 58.5703C123.165 58.5703 126.091 59.4666 127.509 59.8202C127.578 59.5519 127.698 59.2887 127.885 59.0944C127.101 58.6914 125.876 57.899 124.68 56.4559C124.434 56.1594 124.218 55.8714 124.029 55.5947C122.814 54.6614 121.192 53.3676 121.192 53.3676C121.192 53.3676 120.808 52.5079 120.919 52.4566C120.996 52.4211 122.363 53.4565 123.188 54.0908C122.698 52.9646 122.706 52.248 122.757 52.267C122.838 52.2967 123.354 54.1999 125.785 56.1071C127.456 57.4189 129.25 58.1391 130.207 58.4609C130.494 58.1739 130.584 57.7208 130.795 57.3603C131.03 56.957 131.42 56.6726 131.759 56.3509C132.369 55.7729 132.849 54.9952 132.846 54.1552C132.842 53.3153 132.228 52.4526 131.392 52.3776C131.176 52.3585 130.957 52.3885 130.739 52.4189C130.416 52.4636 130.096 52.5082 129.797 52.3918C129.295 52.1953 129.064 51.6262 128.678 51.2492C128.068 50.653 127.137 50.586 126.309 50.3832C125.48 50.1808 124.568 49.6278 124.572 48.7747C124.573 48.5653 124.637 48.3516 124.775 48.1942C125.019 47.9149 125.442 47.8648 125.805 47.9416Z" fill="#2E302A"/>
<path d="M130.758 44.0514C130.841 44.1396 130.972 44.1744 131.093 44.129C131.253 44.0686 131.334 43.8904 131.273 43.7308L127.025 32.4405C126.964 32.2798 126.786 32.1996 126.626 32.26C126.467 32.32 126.385 32.4983 126.446 32.6582L130.694 43.9482C130.709 43.9878 130.731 44.0225 130.758 44.0514Z" fill="#2E302A"/>
<path d="M129.481 44.5781C129.564 44.6663 129.695 44.7011 129.816 44.6557C129.975 44.5953 130.056 44.4171 129.996 44.2571L125.747 32.9671C125.687 32.8061 125.508 32.7263 125.349 32.7863C125.189 32.8467 125.108 33.025 125.168 33.1849L129.417 44.4749C129.432 44.5144 129.454 44.5492 129.481 44.5781Z" fill="#2E302A"/>
<path d="M126.621 31.4958L128.356 30.8385L126.114 24.9177L124.379 25.575L126.621 31.4958Z" fill="#2E302A"/>
<path d="M128.583 79.1501L145.107 69.1535L123.125 21.4916L105.961 29.1355L128.583 79.1501Z" fill="#99B589"/>
<path d="M122.128 23.6718C122.128 23.6718 107.843 30.0409 107.727 29.9385C107.611 29.8363 128.988 76.2759 128.988 76.2759L143.062 68.2766L122.128 23.6718ZM121.675 24.8895L141.857 67.8937L129.408 74.9696C122.759 60.5251 111.215 35.4208 108.972 30.46C109.343 30.3063 109.807 30.1072 110.393 29.855C111.595 29.3386 113.261 28.611 115.345 27.6927C117.868 26.5819 120.406 25.4539 121.675 24.8895Z" fill="#465043"/>
<path d="M129.973 63.9428C128.974 65.0741 129.082 66.8009 130.213 67.7993C131.345 68.7978 133.071 68.6902 134.07 67.5589C135.068 66.4276 134.961 64.7008 133.829 63.7023C132.698 62.7039 130.971 62.8115 129.973 63.9428Z" fill="#465043"/>
<path d="M116.437 34.5636C115.542 35.5778 115.639 37.1253 116.653 38.0201C117.666 38.915 119.214 38.8184 120.109 37.8045C121.004 36.7907 120.907 35.2433 119.893 34.3484C118.879 33.4535 117.332 33.5498 116.437 34.5636Z" fill="#465043"/>
<path d="M140.322 67.986C140.386 68.042 140.433 68.0416 140.492 68.0409C140.614 68.0394 140.725 67.9651 140.773 67.8539C140.827 67.7327 140.795 67.5955 140.706 67.5084C140.358 66.9381 137.439 60.7363 135.527 56.6301C135.455 56.4753 135.271 56.4079 135.116 56.4804C134.961 56.5525 134.894 56.7366 134.966 56.8911C134.966 56.8911 136.244 59.635 137.538 62.3789C139.636 66.8239 140.09 67.7814 140.322 67.986Z" fill="#465043"/>
<path d="M139.26 68.7828C139.324 68.8388 139.371 68.8384 139.43 68.8377C139.551 68.8362 139.663 68.7619 139.711 68.6506C139.764 68.5291 139.733 68.3923 139.644 68.3051C139.296 67.736 136.377 61.533 134.465 57.4265C134.394 57.2713 134.209 57.2044 134.054 57.2768C133.899 57.3486 133.832 57.533 133.904 57.6875C133.904 57.6875 135.182 60.4314 136.476 63.1753C138.573 67.6207 139.028 68.5782 139.26 68.7828Z" fill="#465043"/>
<path d="M123.532 48.816C124.143 48.8874 124.699 49.2493 125.313 49.2684C126.164 49.2947 126.877 48.6744 127.654 48.3281C128.994 47.7312 130.682 48.006 131.749 49.0125C132.229 49.466 132.578 50.0377 132.922 50.6021C133.214 51.0819 133.505 51.5621 133.797 52.0419C134.117 52.5675 134.386 53.3207 134.589 53.9104C134.752 54.3873 134.582 55.0259 134.371 55.4589C134.025 56.166 133.438 56.7194 132.9 57.2933C132.361 57.8672 131.842 58.5117 131.69 59.284C131.629 59.5889 131.629 59.9043 131.548 60.2045C131.468 60.5046 131.283 60.8029 130.989 60.9028C130.775 60.9753 130.536 60.9332 130.323 61.0089C129.995 61.1257 129.823 61.4869 129.747 61.8269C129.671 62.167 129.651 62.5293 129.478 62.832C129.207 63.3063 128.633 63.508 128.1 63.6288C127.743 63.7093 127.372 63.7708 127.013 63.702C126.891 63.6785 126.772 63.6364 126.66 63.5793C126.346 65.2165 125.924 67.5369 125.983 68.4647L121.89 59.6441C121.89 59.6441 124.887 60.2649 126.331 60.4852C126.375 60.2114 126.47 59.9384 126.638 59.7279C125.821 59.3993 124.527 58.724 123.202 57.3983C122.93 57.1257 122.689 56.8589 122.474 56.6008C121.178 55.7846 119.442 54.6468 119.442 54.6468C119.442 54.6468 118.98 53.8265 119.086 53.7651C119.16 53.7226 120.617 54.6266 121.498 55.1815C120.905 54.1058 120.847 53.3917 120.899 53.4056C120.982 53.4276 121.673 55.2748 124.27 56.9482C126.056 58.0992 127.909 58.6497 128.891 58.8814C129.15 58.5692 129.198 58.1095 129.375 57.731C129.572 57.3072 129.934 56.9881 130.241 56.6367C130.795 56.0046 131.201 55.1851 131.119 54.3492C131.038 53.5133 130.346 52.7117 129.506 52.7146C128.97 52.7165 128.436 53.0246 127.92 52.8764C127.402 52.7274 127.119 52.1821 126.7 51.8428C126.037 51.3059 125.104 51.3257 124.261 51.2005C123.417 51.0757 122.457 50.6098 122.382 49.7603C122.364 49.5513 122.407 49.3328 122.53 49.163C122.747 48.8625 123.164 48.7732 123.532 48.816Z" fill="#465043"/>
<path d="M128.105 44.4829C128.196 44.5631 128.33 44.5854 128.445 44.529C128.599 44.4544 128.663 44.2692 128.588 44.1158L123.31 33.2687C123.235 33.1142 123.05 33.0513 122.897 33.1256C122.743 33.2006 122.679 33.3858 122.754 33.5392L128.032 44.3863C128.05 44.4244 128.076 44.4566 128.105 44.4829Z" fill="#465043"/>
<path d="M126.879 45.1256C126.97 45.2058 127.103 45.2285 127.219 45.1721C127.373 45.0975 127.437 44.9123 127.362 44.7585L122.084 33.9118C122.008 33.757 121.824 33.6944 121.67 33.7687C121.517 33.8433 121.452 34.0285 121.527 34.1822L126.806 45.029C126.824 45.0671 126.849 45.0997 126.879 45.1256Z" fill="#465043"/>
<path d="M122.817 32.3654L124.484 31.55L121.702 25.8631L120.035 26.6782L122.817 32.3654Z" fill="#465043"/>
<path d="M119.176 58.7046H138.926V52.7285H119.176V58.7046Z" fill="#495B43"/>
<path d="M138.566 58.6914L137.523 58.6541L136.263 55.9688L136.836 56.0281C136.973 56.2272 137.395 56.8314 138.108 57.7153L138.566 58.6914ZM120.592 55.7978C120.382 55.5625 120.189 55.3041 120.013 55.0197C120.11 55.0823 120.215 55.1511 120.328 55.2243C120.416 55.4154 120.504 55.6068 120.592 55.7978ZM119.839 54.1596C119.714 54.0853 119.598 54.018 119.496 53.9609C119.346 53.5616 119.224 53.1253 119.137 52.6473C119.151 52.6744 119.166 52.7015 119.181 52.7286C119.4 53.2036 119.619 53.6813 119.839 54.1596Z" fill="#252921"/>
<path d="M135.081 57.1359C135.007 56.9782 134.966 56.891 134.966 56.891C134.894 56.7366 134.961 56.5525 135.116 56.4804C135.159 56.4606 135.203 56.4511 135.247 56.4511C135.363 56.4511 135.475 56.5174 135.527 56.6301C135.582 56.7479 135.637 56.8669 135.693 56.9877C135.691 56.9884 135.464 57.047 135.081 57.1359Z" fill="#252921"/>
<path d="M133.926 57.3855C133.956 57.3398 133.999 57.3017 134.053 57.2768C134.095 57.2571 134.14 57.2475 134.183 57.2475C134.243 57.2475 134.302 57.2651 134.352 57.2973C134.217 57.3259 134.075 57.3555 133.926 57.3855Z" fill="#252921"/>
<path d="M126.392 58.0623C125.397 58.0143 124.341 57.8712 123.346 57.5403C123.298 57.4939 123.25 57.4463 123.202 57.3983C122.93 57.1257 122.688 56.8589 122.474 56.6008C121.773 56.1591 120.942 55.6232 120.328 55.2243C120.215 55.1511 120.11 55.0823 120.013 55.0197C119.816 54.7002 119.642 54.3477 119.496 53.9609C119.597 54.018 119.714 54.0853 119.839 54.1596C120.347 54.4612 121.01 54.8748 121.497 55.1815C121.425 55.0493 121.36 54.9227 121.302 54.8019C121.641 55.0278 122.023 55.2565 122.45 55.4878C122.916 55.9563 123.511 56.4595 124.269 56.9482C124.986 57.41 125.714 57.7753 126.392 58.0623ZM129.269 58.0019C129.3 57.9093 129.334 57.8181 129.374 57.731C129.572 57.3072 129.933 56.988 130.241 56.6367C130.336 56.5276 130.427 56.4134 130.512 56.2945C130.777 56.3055 131.069 56.3128 131.379 56.3128C132.186 56.3121 133.109 56.2637 133.973 56.0979C133.653 56.5232 133.265 56.9035 132.899 57.2933C132.796 57.4038 132.693 57.5169 132.593 57.6329C131.716 57.7793 130.747 57.9089 129.818 57.9656C129.652 57.9759 129.468 57.9887 129.269 58.0019Z" fill="#252921"/>
<path d="M183 72.8201V99.309C174.729 92.71 154.41 76.378 154.41 76.378C154.41 76.378 153.593 76.1035 152.055 75.605C151.192 75.3268 150.094 74.9802 148.79 74.5685C145.156 73.4236 139.208 73.8028 139.208 73.8028L145.799 71.6284L144.131 63.6683C142.09 61.9997 140.508 60.3743 139.356 59.045C137.716 57.1524 136.94 55.856 136.94 55.856L134.953 55.6536C132.703 56.4482 129.171 56.0112 129.171 56.0112C125.704 56.6685 123.403 55.7693 123.403 55.7693C116.23 52.3274 119.939 49.4488 119.939 49.4488C120.821 49.5389 124.096 50.5033 127.444 50.2939C130.789 50.0842 137.871 47.6719 140.277 47.5958C142.683 47.52 151.903 52.4936 154.446 54.6025C156.989 56.7084 160.777 60.0493 172.83 67.1138C175.954 68.9449 179.482 70.9133 183 72.8201Z" fill="#FAC99E"/>
<path d="M152.055 75.605C151.192 75.3269 150.094 74.9803 148.79 74.5685C148.767 74.5612 148.743 74.5539 148.72 74.5469L149.029 65.9049C149.076 65.8786 149.111 65.831 149.119 65.7735C149.13 65.7018 149.097 65.6341 149.04 65.5968L149.273 59.0739L148.465 59.045H152.055V75.605Z" fill="#EA9C5C"/>
<path d="M139.108 47.7363L139.07 47.5599C139.536 47.4775 139.942 47.4259 140.274 47.415C140.276 47.415 140.278 47.415 140.28 47.415C140.377 47.415 140.457 47.4918 140.46 47.5895C140.46 47.5928 140.46 47.5958 140.46 47.5987C140.417 47.5961 140.375 47.595 140.335 47.595C140.316 47.595 140.298 47.5954 140.28 47.5958C139.963 47.6056 139.567 47.6562 139.108 47.7363Z" fill="#332920"/>
<path d="M139.003 47.7546L138.953 47.58C138.991 47.5731 139.029 47.5665 139.067 47.5599L139.105 47.7363C139.071 47.7425 139.037 47.7484 139.003 47.7546Z" fill="#141210"/>
<path d="M137.588 48.0518L137.527 47.8805C137.58 47.8685 137.633 47.8564 137.686 47.8443C138.141 47.7407 138.566 47.6507 138.953 47.5801L139.002 47.7546C138.576 47.8319 138.1 47.9336 137.588 48.0518Z" fill="#47362D"/>
<path d="M135.987 48.4402L135.926 48.2703C136.483 48.1298 137.021 47.9973 137.525 47.8805L137.585 48.0518C137.082 48.1678 136.545 48.2996 135.987 48.4402Z" fill="#6A5041"/>
<path d="M135.604 48.539L135.527 48.3728C135.663 48.3384 135.798 48.304 135.932 48.2703L135.994 48.4402C135.865 48.4727 135.735 48.5057 135.604 48.539Z" fill="#271E19"/>
<path d="M119.129 52.6217C119.069 52.4906 119.009 52.3596 118.949 52.229C118.842 51.9288 118.797 51.6434 118.797 51.3769C118.797 50.7342 119.056 50.2167 119.31 49.8628C119.565 49.5081 119.817 49.3123 119.826 49.305C119.858 49.2805 119.897 49.2673 119.937 49.2673C119.943 49.2673 119.949 49.2677 119.956 49.268C120.378 49.313 121.238 49.5268 122.377 49.7328C122.378 49.742 122.379 49.7511 122.379 49.7603C122.384 49.8156 122.393 49.8694 122.405 49.9213C121.233 49.7112 120.337 49.4898 119.937 49.4488C119.937 49.4488 118.745 50.3741 119.019 51.8022C119.045 52.088 119.082 52.3607 119.129 52.6217ZM132.123 49.4206C132.081 49.369 132.037 49.3178 131.993 49.268C132.093 49.2435 132.194 49.2186 132.295 49.1941C132.528 49.1363 132.763 49.0777 132.998 49.0184L133.076 49.1838C132.757 49.2644 132.439 49.3438 132.123 49.4206ZM133.992 48.9507L133.914 48.7853C134.458 48.6462 134.997 48.5067 135.522 48.3728L135.599 48.5389C135.075 48.6722 134.535 48.8116 133.992 48.9507Z" fill="#81644B"/>
<path d="M119.134 52.6473C119.059 52.5053 118.998 52.3655 118.949 52.229C119.009 52.3596 119.069 52.4906 119.13 52.6217C119.131 52.6305 119.133 52.6389 119.134 52.6473ZM133.076 49.1838L132.999 49.0184C133.304 48.9415 133.61 48.8632 133.915 48.7853L133.992 48.9507C133.688 49.0287 133.382 49.107 133.076 49.1838Z" fill="#3D2E25"/>
<path d="M126.472 50.3236C124.989 50.3236 123.565 50.1281 122.411 49.9214C122.399 49.8694 122.39 49.8156 122.385 49.7603C122.384 49.7512 122.384 49.742 122.383 49.7329C122.395 49.7351 122.407 49.7369 122.418 49.7391C123.572 49.947 124.996 50.1439 126.475 50.1439C126.793 50.1439 127.114 50.1347 127.435 50.1146C128.599 50.0425 130.251 49.6933 131.999 49.2681C132.043 49.3178 132.087 49.3691 132.129 49.4207C130.346 49.8562 128.653 50.2182 127.448 50.2939C127.121 50.3144 126.795 50.3236 126.472 50.3236Z" fill="#3D2E25"/>
<path d="M139.071 58.7094L138.933 58.7046C138.626 58.3459 138.351 58.0147 138.11 57.7153L137.865 57.1934C138.182 57.6194 138.583 58.1322 139.071 58.7094ZM126.665 56.4321C126.665 56.4321 126.665 56.4321 126.664 56.4321C124.611 56.4321 123.354 55.9439 123.338 55.938L123.326 55.9325C123.015 55.7832 122.724 55.635 122.452 55.4878C122.303 55.3378 122.167 55.1907 122.043 55.0494C122.446 55.2862 122.899 55.5263 123.405 55.7693C123.405 55.7693 124.639 56.2517 126.661 56.2517C127.352 56.2517 128.136 56.1953 128.994 56.0442C128.998 56.0709 129.009 56.0972 129.027 56.1203C129.062 56.1682 129.116 56.1931 129.172 56.1931C129.209 56.1931 129.247 56.1818 129.279 56.1576C129.333 56.1177 129.385 56.0782 129.436 56.039C129.691 56.0636 130.114 56.098 130.634 56.117C130.595 56.177 130.555 56.2363 130.514 56.2945C129.81 56.2649 129.3 56.2092 129.177 56.1953C128.251 56.3684 127.406 56.4321 126.665 56.4321ZM133.975 56.098C134.028 56.0277 134.078 55.9563 134.127 55.8831C134.416 55.8216 134.694 55.7459 134.955 55.6536L136.176 55.7781L136.265 55.9688L134.978 55.8359C134.661 55.9453 134.323 56.031 133.975 56.098ZM121.304 54.802C120.626 54.3507 120.115 53.9115 119.736 53.4884C119.504 53.2293 119.322 52.9753 119.183 52.7286C119.167 52.6923 119.15 52.6579 119.134 52.6217C119.087 52.3607 119.05 52.0881 119.023 51.8022C119.171 52.5727 119.746 53.4895 121.164 54.4865C121.205 54.586 121.252 54.6914 121.304 54.802Z" fill="#3F3427"/>
<path d="M138.108 57.7153C137.396 56.8314 136.973 56.2272 136.837 56.028L136.264 55.9688L136.175 55.7781L136.76 55.8377C136.758 55.856 136.759 55.8751 136.763 55.8941C136.781 55.9794 136.856 56.0376 136.94 56.0376C136.952 56.0376 136.965 56.0365 136.977 56.0335C136.999 56.0291 137.021 56.0244 137.043 56.0196C137.179 56.2308 137.45 56.6385 137.864 57.1934L138.108 57.7153ZM119.182 52.7286C119.166 52.7015 119.152 52.6744 119.138 52.6473C119.136 52.6389 119.134 52.6305 119.133 52.6217C119.149 52.6579 119.165 52.6923 119.182 52.7286Z" fill="#201B16"/>
<path d="M131.377 56.3128C131.068 56.3128 130.775 56.3055 130.51 56.2945C130.552 56.2363 130.592 56.177 130.63 56.117C130.864 56.1258 131.118 56.1312 131.385 56.1312C132.242 56.1312 133.23 56.0745 134.124 55.8831C134.075 55.9563 134.024 56.0277 133.971 56.0979C133.108 56.2637 132.185 56.3121 131.377 56.3128ZM122.448 55.4878C122.021 55.2565 121.64 55.0278 121.301 54.8019C121.248 54.6914 121.202 54.586 121.16 54.4864C121.424 54.6716 121.715 54.859 122.04 55.0494C122.163 55.1906 122.299 55.3378 122.448 55.4878Z" fill="#201B16"/>
<path d="M149.027 65.9049L149.038 65.5967C149.095 65.6341 149.128 65.7018 149.118 65.7735C149.109 65.831 149.075 65.8786 149.027 65.9049Z" fill="#9F2D2F"/>
<path d="M136.938 56.0376C136.855 56.0376 136.78 55.9794 136.762 55.8941C136.758 55.875 136.757 55.856 136.759 55.8377L136.939 55.856C136.939 55.856 136.973 55.9127 137.042 56.0196C137.02 56.0244 136.998 56.0291 136.976 56.0335C136.963 56.0364 136.951 56.0376 136.938 56.0376Z" fill="#201B16"/>
<path d="M129.17 56.1931C129.115 56.1931 129.06 56.1682 129.025 56.1203C129.008 56.0972 128.997 56.0709 128.992 56.0442C129.051 56.0335 129.111 56.0226 129.172 56.0112C129.172 56.0112 129.266 56.0229 129.434 56.039C129.383 56.0782 129.331 56.1177 129.278 56.1576C129.245 56.1818 129.207 56.1931 129.17 56.1931Z" fill="#3F3427"/>
<path d="M78.0966 107.99C77.6351 108.456 77.0956 112.182 72.6795 112.445C72.1451 112.479 71.5474 112.459 70.8916 112.377C67.1752 111.91 61.0004 110.608 56.7687 109.666C54.087 109.073 52.1875 108.621 52.1875 108.621L55.1605 103.199L58.2602 97.5493C58.2602 97.5493 59.5478 97.0731 61.2577 96.6456C62.0109 96.456 62.8465 96.2763 63.6869 96.1501C65.8975 95.8247 70.3038 92.6716 74.8074 91.0733C75.9054 90.6798 77.0133 90.3786 78.0966 90.2377C78.0966 90.2377 78.1742 92.8707 78.2471 96.1061C78.3444 101.154 78.4121 107.674 78.0966 107.99Z" fill="#FAC99E"/>
<path d="M74.1445 97.7637L74.8107 91.0733C75.2733 90.9075 75.7377 90.7578 76.2011 90.63L75.9753 96.9501C75.3556 97.2063 74.7444 97.4797 74.1445 97.7637Z" fill="#FAC99E"/>
<path d="M60.4153 105.758C59.6226 105.758 58.8049 105.749 58.0071 105.734C57.9276 105.733 57.8486 105.731 57.7695 105.73C57.958 105.093 58.1538 104.473 58.3529 103.873C59.3891 104.048 60.4029 104.166 61.2557 104.166C63.7086 104.166 68.4403 100.463 74.1392 97.7638L73.7608 101.567C71.3756 102.32 69.1305 103.265 68.2174 103.925C66.7618 104.976 65.1437 105.543 65.1437 105.543C64.1207 105.704 62.3394 105.758 60.4153 105.758Z" fill="#FAC99E"/>
<path d="M73.7617 101.566L74.1402 97.7638C74.74 97.4797 75.3513 97.2063 75.9709 96.9501L75.8271 100.975C75.1459 101.149 74.448 101.35 73.7617 101.566Z" fill="#FAC99E"/>
<path d="M58.356 103.873C57.5998 103.745 56.8316 103.586 56.1055 103.422C57.7602 100.366 59.2999 97.9969 59.9715 96.9955C60.3577 96.8824 60.7925 96.762 61.2587 96.6456C60.5183 98.2007 59.3874 100.768 58.356 103.873Z" fill="#FAC99E"/>
<path d="M57.7724 105.73C56.7612 105.711 55.7876 105.683 54.9414 105.655C55.2814 104.975 55.6244 104.317 55.9633 103.685C56.0105 103.597 56.0581 103.509 56.1053 103.422C56.8314 103.586 57.5997 103.745 58.3558 103.873C58.1567 104.473 57.9609 105.093 57.7724 105.73Z" fill="#FAC99E"/>
<path d="M50.1219 94.5711C49.7237 94.4397 49.2815 94.3186 48.8054 94.2066C45.2493 93.3223 39.7787 92.7005 35.0614 91.4133C29.7173 89.9559 24.2518 86.6765 19.3936 85.6221C14.5354 84.568 11.013 80.8465 4.57584 77.3245C3.13045 76.5336 1.56251 75.9029 0 75.3986V114.726C6.07446 115.158 20.4977 115.86 27.2882 117.769C29.2704 118.328 31.5586 118.853 33.8663 119.324C40.6242 120.713 47.5716 121.656 47.5716 121.656C47.5716 121.656 50.6079 115.34 53.5227 108.675C54.2954 106.906 55.1405 105.216 55.9618 103.685C58.2306 99.4587 60.3245 96.4754 60.3245 96.4754C56.6806 95.7032 53.5227 95.6644 50.1219 94.5711Z" fill="#F95031"/>
<path d="M60.3254 96.4754C60.3254 96.4754 56.4388 102.009 53.5236 108.675C50.6088 115.34 47.5725 121.656 47.5725 121.656C47.5725 121.656 40.625 120.713 33.8672 119.324C36.4129 114.16 39.1578 108.578 41.4994 103.802C44.4435 97.8066 46.9261 95.2365 48.8062 94.2066C49.2824 94.3186 49.7245 94.4397 50.1227 94.5711C53.5236 95.6644 56.6815 95.7032 60.3254 96.4754Z" fill="#FF6A3A"/>
<path d="M33.8663 119.324C31.5586 118.853 29.2704 118.328 27.2882 117.769C20.4977 115.86 6.07446 115.158 0 114.726V82.794C3.32474 83.9879 7.14286 85.909 11.2559 88.9841C11.2559 88.9841 19.7579 90.6311 24.7959 92.9047C29.8387 95.1783 29.8387 94.8141 32.6323 95.907C35.4258 97.0003 37.369 97.2433 40.0411 98.2147C40.6553 98.4383 42.0567 98.9258 43.8512 99.5443C43.1049 100.724 42.3195 102.13 41.4985 103.802C39.1569 108.578 36.412 114.16 33.8663 119.324Z" fill="#F95031"/>
<path d="M54.9421 105.655C54.9418 105.655 54.9418 105.655 54.9414 105.655C55.2814 104.975 55.624 104.316 55.9625 103.685C55.9629 103.685 55.9636 103.685 55.964 103.685C55.6251 104.317 55.2822 104.975 54.9421 105.655Z" fill="#293E9B"/>
<path d="M43.1058 120.988C40.5423 120.579 37.1817 120.006 33.8672 119.324C36.4129 114.16 39.1578 108.578 41.4994 103.802C42.3204 102.13 43.1058 100.724 43.8521 99.5444C47.366 100.755 52.3883 102.469 55.9612 103.685C55.6226 104.316 55.2801 104.975 54.94 105.655C53.2762 105.6 52.1039 105.543 52.1039 105.543L43.1058 120.988Z" fill="#F95031"/>
<path d="M145.83 119.639C144.543 117.06 140.621 116.836 136.287 114.009C130.508 110.242 133.716 106.688 133.716 106.688H133.716C133.529 107.244 133.577 107.947 133.925 108.783C135.142 111.697 139.754 112.181 141.091 113.034C141.164 113.08 141.243 113.126 141.327 113.173C141.477 113.331 141.652 113.486 141.855 113.629C141.887 113.651 141.923 113.662 141.959 113.662C142.016 113.662 142.072 113.635 142.107 113.585C142.114 113.576 142.119 113.566 142.124 113.556C143.449 114.137 145.232 114.742 145.857 115.443C145.916 115.712 145.958 115.99 145.975 116.269C145.981 116.365 146.06 116.439 146.155 116.439C146.159 116.439 146.162 116.438 146.166 116.438C146.172 116.438 146.178 116.437 146.183 116.436C146.279 117.083 146.339 117.96 146.155 118.765C146.085 119.072 145.981 119.369 145.83 119.639Z" fill="#9B582A"/>
<path d="M143.415 73.3878L123.023 72.6595L123.441 60.9464L143.833 61.6743L143.415 73.3878Z" fill="white"/>
<path d="M141.472 71.7078L125.086 71.1226L125.11 70.455L141.496 71.0402L141.472 71.7078Z" fill="#A6D4E8"/>
<path d="M149.272 59.0739L147.426 110.78L146.957 123.963L146.094 123.93L108.947 122.605L90.9963 121.966L75.0977 121.398L77.4163 56.506L149.272 59.0739Z" fill="#E89D53"/>
<path d="M118.044 72.4819L107.605 72.109L108.123 57.604L118.562 57.977L118.044 72.4819Z" fill="#DBAC85"/>
<path d="M116.243 122.868L105.805 122.495L106.323 107.99L116.761 108.363L116.243 122.868Z" fill="#DBAC85"/>
<path d="M132.08 64.0197L125.344 63.7792L125.385 62.6263L132.121 62.8668L132.08 64.0197Z" fill="#3F5FA1"/>
<path d="M141.636 66.974L125.25 66.3888L125.274 65.7212L141.66 66.3064L141.636 66.974Z" fill="#A6D4E8"/>
<path d="M141.582 68.5518L125.195 67.967L125.219 67.2994L141.606 67.8843L141.582 68.5518Z" fill="#A6D4E8"/>
<path d="M141.523 70.13L125.137 69.5448L125.161 68.8772L141.547 69.4624L141.523 70.13Z" fill="#A6D4E8"/>
<path d="M88.7419 62.0275L81.6631 61.7746L81.4102 68.8534L88.489 69.1063L88.7419 62.0275ZM88.2057 62.5264L87.9901 68.5701L81.946 68.3546L82.1619 62.3108L88.2057 62.5264Z" fill="#231F20"/>
<path d="M83.0352 67.2584C83.0399 67.1255 83.0443 66.9982 83.0494 66.8605C84.3634 66.9074 85.6777 66.9542 86.9997 67.0014C86.9953 67.1306 86.9905 67.2609 86.9858 67.3993C85.6696 67.3524 84.3553 67.3056 83.0352 67.2584Z" fill="#231F20"/>
<path d="M85.871 64.3794C85.782 64.3765 85.7139 64.3739 85.625 64.3706C85.7915 64.1042 85.9482 63.8539 86.1147 63.5874C86.2607 63.8615 86.3991 64.1225 86.5462 64.3992C86.4606 64.3999 86.3932 64.4007 86.3123 64.4018C86.2845 65.185 86.2563 65.9664 86.2282 66.7548C86.077 66.7496 85.939 66.7445 85.7864 66.739C85.8142 65.9598 85.8424 65.1784 85.871 64.3794Z" fill="#231F20"/>
<path d="M83.9253 64.311C83.8371 64.3081 83.7686 64.3055 83.6797 64.3022C83.8459 64.0358 84.0025 63.7847 84.1694 63.5171C84.3154 63.7924 84.4549 64.0555 84.6038 64.3363C84.5127 64.3333 84.445 64.3308 84.3652 64.3278C84.337 65.1188 84.3092 65.8994 84.281 66.6863C84.1306 66.6809 83.9926 66.6761 83.8407 66.6706C83.8689 65.8899 83.8967 65.1096 83.9253 64.311Z" fill="#231F20"/>
<path d="M92.5989 67.3455C92.4924 67.3415 92.3918 67.3375 92.2911 67.3345C92.0986 67.3287 91.9057 67.325 91.7132 67.317C91.5796 67.3115 91.4782 67.2591 91.4146 67.1296C91.285 66.8664 91.1448 66.6087 91.0156 66.361C91.1518 66.3782 91.2898 66.4049 91.4288 66.4115C91.8267 66.4309 92.2253 66.4418 92.6304 66.4561C92.6194 66.7672 92.6096 67.0487 92.5989 67.3455Z" fill="#231F20"/>
<path d="M94.2751 65.0748C94.4174 65.3402 94.562 65.5997 94.696 65.8643C94.745 65.9617 94.7322 66.0638 94.6671 66.1622C94.5038 66.4089 94.3472 66.6604 94.196 66.8968C94.1462 66.7782 94.1016 66.6556 94.0445 66.5392C93.8798 66.2061 93.71 65.8757 93.5423 65.5437C93.5259 65.5111 93.512 65.4774 93.4922 65.4339C93.7535 65.3142 94.0101 65.1964 94.2751 65.0748Z" fill="#231F20"/>
<path d="M92.2155 65.2355C91.978 65.0668 91.7504 64.905 91.5117 64.7356C91.6757 64.4746 91.8338 64.2166 92 63.964C92.0494 63.8886 92.1295 63.8484 92.2269 63.8531C92.5201 63.8678 92.8136 63.8806 93.1067 63.8945L93.1298 63.8992C93.0555 63.9959 92.975 64.0888 92.9073 64.1902C92.6976 64.5046 92.4926 64.8219 92.2854 65.1378C92.2653 65.1685 92.2426 65.1978 92.2155 65.2355Z" fill="#231F20"/>
<path d="M94.0282 64.4717C94.0919 64.4398 94.1453 64.4131 94.1991 64.3864L94.2141 64.3974C94.1669 64.4764 94.1204 64.5555 94.0732 64.6346C94 64.7561 93.9286 64.8787 93.8518 64.998L93.7712 65.0565C93.5257 65.0525 93.2801 65.0419 93.0275 65.0093C93.0886 64.9742 93.1498 64.9394 93.2182 64.8999C93.1337 64.7396 93.0572 64.5778 92.9653 64.4263C92.9097 64.3344 92.9243 64.2708 92.9741 64.1814C93.1037 63.9487 93.2995 63.8707 93.5498 63.8949C93.668 63.9066 93.7592 63.9593 93.8148 64.0709C93.8807 64.2034 93.9539 64.3326 94.0282 64.4717Z" fill="#231F20"/>
<path d="M92.032 65.8928C91.9753 65.8592 91.9186 65.8255 91.8501 65.7852C91.7586 65.9305 91.6583 66.07 91.58 66.2204C91.5211 66.3331 91.446 66.3588 91.3245 66.3558C91.0647 66.35 90.9172 66.2358 90.8045 65.9792C90.7613 65.8808 90.7697 65.7827 90.8297 65.6893C90.9117 65.562 90.99 65.4324 91.072 65.3003C91.0167 65.263 90.9673 65.2297 90.9179 65.1963L90.9212 65.1649C91.0698 65.1704 91.221 65.1941 91.3666 65.1766C91.6137 65.1466 91.7601 65.2333 91.841 65.4712C91.8893 65.6132 91.9771 65.7417 92.047 65.8764L92.032 65.8928Z" fill="#231F20"/>
<path d="M93.2872 66.257C93.2847 66.3211 93.2824 66.3848 93.2795 66.4667C93.3319 66.4686 93.3805 66.47 93.4292 66.4719C93.5306 66.4755 93.632 66.4752 93.733 66.4839C93.8132 66.4909 93.9306 66.4814 93.965 66.5279C94.0591 66.6552 94.1565 66.8005 94.11 66.9744C94.0836 67.0736 94.0368 67.1698 93.9833 67.2577C93.9219 67.3598 93.8234 67.4052 93.6993 67.3967C93.5522 67.3865 93.4043 67.385 93.2466 67.3792C93.2437 67.4535 93.2415 67.515 93.2393 67.5765L93.2191 67.5812C93.1236 67.4085 93.038 67.2295 92.9296 67.0655C92.8498 66.9444 92.8601 66.8554 92.9432 66.7427C93.0603 66.5846 93.1591 66.4126 93.2653 66.2468L93.2872 66.257Z" fill="#231F20"/>
<path d="M96.4255 62.3017L89.3467 62.0491L89.0938 69.1279L96.1726 69.3805L96.4255 62.3017ZM95.8896 62.8009L95.6737 68.8446L89.6299 68.6287L89.8455 62.5849L95.8896 62.8009Z" fill="#231F20"/>
<path d="M100.092 64.0859C100.025 64.1668 99.9734 64.2777 99.9101 64.3659C99.8753 64.4146 99.8438 64.4658 99.7988 64.5342L100.272 64.5511C100.019 64.8874 99.7776 65.2099 99.5312 65.5378C99.936 65.9265 100.694 66.003 101.22 65.7113C101.634 65.4822 101.884 65.114 102.058 64.6898C102.127 64.5222 102.177 64.3465 102.236 64.1624L100.092 64.0859Z" fill="#231F20"/>
<path d="M99.0547 67.8304C99.0594 67.7001 99.0638 67.575 99.069 67.4374C99.4368 67.4505 99.7984 67.4633 100.172 67.4769C100.19 66.9868 100.206 66.5088 100.224 66.0235C100.369 66.0286 100.502 66.0334 100.648 66.0385C100.631 66.518 100.613 66.9956 100.596 67.4864C100.969 67.4999 101.33 67.5127 101.7 67.5259C101.695 67.6639 101.691 67.7891 101.686 67.9245C100.815 67.8934 99.9408 67.8619 99.0547 67.8304Z" fill="#231F20"/>
<path d="M99.8236 64.0764L98.7812 64.0391C98.8651 64.5361 99.0235 64.9874 99.354 65.379C99.5111 65.1693 99.6578 64.9738 99.8185 64.7597L99.3548 64.7433C99.5147 64.5152 99.6673 64.2986 99.8236 64.0764Z" fill="#231F20"/>
<path d="M104.109 62.5762L97.0299 62.3233L96.7773 69.4021L103.856 69.655L104.109 62.5762ZM103.573 63.075L103.357 69.1188L97.3132 68.9032L97.5291 62.8594L103.573 63.075Z" fill="#231F20"/>
<path d="M105.808 122.493L102.38 122.371C99.9084 120.92 92.3194 114.084 91.1347 112.427C89.9214 110.726 88.4622 108.458 89.8383 107.24C90.7731 106.413 92.1024 106.202 93.2923 106.019C94.4719 105.838 95.6617 105.722 96.8487 105.602C98.1798 105.467 99.201 105.651 100.528 105.211C101.957 104.737 103.395 104.216 104.62 103.341C105.788 102.506 106.757 101.302 107.043 99.9008C107.299 101.138 107.251 102.706 106.13 104.282C103.721 107.667 100.048 107.909 95.594 108.75C91.1409 109.591 98.4258 117.227 102.157 118.765C103.528 119.33 104.801 119.897 105.881 120.454L105.808 122.493Z" fill="#EA9C5C"/>
<path d="M108.944 122.605L105.805 122.493L105.878 120.454C107.318 121.198 108.415 121.923 108.944 122.605Z" fill="#DBAC85"/>
<path d="M108.158 122.579C108.158 122.579 107.732 127.99 105.954 129.803C104.17 131.616 100.125 129.362 100.125 129.362C100.125 129.362 99.3126 132.1 90.0809 130.763C90.0809 130.763 88.7842 133.071 84.6561 133.476C84.6561 133.476 84.3347 133.964 82.713 134.614C81.0949 135.26 79.7188 134.614 79.7188 134.614C79.7188 134.614 78.1801 136.716 75.5906 136.878C72.9939 137.041 67.3304 130.561 61.3349 127.159C61.3349 127.159 58.9043 125.14 54.7762 124.569C54.2452 124.497 53.6383 124.421 52.981 124.342C48.5279 123.807 41.8242 123.186 41.8242 123.186L52.1033 105.543C52.1033 105.543 54.9135 105.68 58.0087 105.734C60.7428 105.785 63.7008 105.77 65.1454 105.543C65.1454 105.543 66.7635 104.976 68.219 103.925C69.6783 102.87 74.5358 101.09 77.9345 100.522C81.3368 99.9554 83.5219 99.4426 86.1948 99.3774C88.8673 99.309 96.3977 97.9328 99.8795 96.9611C101.49 96.512 103.311 95.9773 105.004 96.1823C106.575 96.3726 107.302 98.2556 107.08 99.6955C106.851 101.184 105.846 102.465 104.621 103.34C103.395 104.216 101.958 104.737 100.529 105.211C99.2017 105.651 98.1805 105.467 96.8494 105.602C95.6624 105.722 94.4726 105.838 93.293 106.019C92.1031 106.202 90.7738 106.413 89.839 107.24C88.4629 108.458 89.9221 110.726 91.1354 112.427C92.3491 114.124 100.284 121.257 102.552 122.467L107.793 122.576L108.158 122.579Z" fill="#FAC99E"/>
<path d="M52.981 124.342C48.5279 123.807 41.8242 123.186 41.8242 123.186L52.1033 105.543C52.1033 105.543 54.9135 105.68 58.0087 105.734C57.5029 108.97 56.0221 117.075 52.981 124.342Z" fill="#FAC99E"/>
<path d="M107.796 122.576H107.795L102.555 122.467C102.555 122.467 102.555 122.467 102.555 122.467L107.797 122.574C107.797 122.575 107.796 122.575 107.796 122.576Z" fill="#468A72"/>
<path d="M106.601 123.881C105.636 123.876 102.596 122.487 102.555 122.467L107.794 122.576H107.795C107.524 123.207 107.116 123.881 106.601 123.881Z" fill="#FAC99E"/>
<path d="M100.124 129.542C100.111 129.542 100.097 129.54 100.084 129.537C100.081 129.537 100.068 129.534 100.043 129.527C100.107 129.425 100.125 129.362 100.125 129.362C100.125 129.362 100.181 129.393 100.283 129.445C100.252 129.504 100.191 129.542 100.124 129.542Z" fill="#468A72"/>
<path d="M90.0817 130.946C90.0696 130.946 90.0572 130.945 90.0448 130.942C90.0206 130.937 89.9968 130.932 89.9727 130.927C90.047 130.824 90.081 130.763 90.081 130.763C90.1414 130.772 90.201 130.781 90.2603 130.789C90.26 130.793 90.2592 130.797 90.2581 130.802C90.2406 130.887 90.1655 130.946 90.0817 130.946Z" fill="#468A72"/>
<path d="M79.7182 134.793C79.7028 134.793 79.6875 134.792 79.6717 134.787L79.6303 134.777C79.6201 134.774 79.6077 134.771 79.5938 134.768C79.6761 134.671 79.7182 134.614 79.7182 134.614C79.7182 134.614 79.7775 134.642 79.8858 134.68C79.8584 134.749 79.791 134.793 79.7182 134.793Z" fill="#468A72"/>
<path d="M56.1074 104.944C53.3818 104.049 43.4226 100.77 39.6865 99.376C39.5068 99.3079 39.3417 99.2446 39.1909 99.1864C35.4258 97.729 33.4824 99.1864 27.5311 95.907C21.5797 92.6277 14.5354 92.7492 11.8633 91.2918C9.19117 89.8344 5.79038 88.377 0.013868 85.6221L0 85.6159V131.384C4.76001 131.147 9.76521 131.071 14.1709 130.886C18.111 130.721 20.2923 130.926 22.2551 131.178C24.2858 131.431 26.0834 131.737 29.3529 131.737C35.7901 131.737 39.5555 133.316 42.1057 131.737C44.6564 130.158 50.2434 119.227 53.2797 113.479C55.3882 109.491 56.2677 107.037 56.6078 105.91C56.7293 105.502 56.5108 105.079 56.1074 104.944Z" fill="#F95031"/>
<path d="M56.6066 105.91C56.2665 107.037 55.387 109.491 53.2785 113.479C50.2422 119.227 44.6552 130.158 42.1045 131.737C39.5543 133.316 35.7889 131.737 29.3517 131.737C26.0822 131.737 24.2846 131.431 22.2539 131.178L22.2587 131.173C31.9219 119.679 35.0602 106.352 38.5825 100.887C38.9566 100.309 39.3259 99.8082 39.6853 99.376C43.4214 100.77 53.3806 104.049 56.1062 104.944C56.5096 105.079 56.7281 105.502 56.6066 105.91Z" fill="#FF6A3A"/>
<path d="M36.7645 127.812C36.7645 129.443 35.3779 130.765 33.6674 130.765C31.9568 130.765 30.5703 129.443 30.5703 127.812C30.5703 126.181 31.9568 124.859 33.6674 124.859C35.3779 124.859 36.7645 126.181 36.7645 127.812Z" fill="#FF6A3A"/>
<path d="M183 126.294C179.447 124.968 175.787 123.517 173.523 122.384C167.936 119.592 163.443 116.432 158.097 113.882C152.756 111.332 152.026 111.091 147.533 109.147C143.036 107.204 142.43 106.475 138.482 105.442C135.148 104.571 132.714 105.868 133.927 108.783C135.145 111.697 139.757 112.181 141.093 113.034C142.43 113.882 145.832 114.735 146.074 115.825C146.204 116.421 146.41 117.66 146.157 118.765C145.947 119.694 145.417 120.528 144.253 120.806C141.7 121.413 139.757 121.778 136.723 122.626C133.685 123.479 131.136 123.114 127.491 123.114C123.847 123.114 115.833 122.749 115.833 122.749C115.833 122.749 114.98 123.963 118.747 125.18C119.011 125.266 119.264 125.35 119.509 125.436C122.742 126.581 124.309 127.831 127.249 129.185C130.406 130.644 133.563 130.763 135.752 131.981C137.937 133.194 140.851 135.137 143.766 135.379C146.681 135.625 147.045 134.653 152.875 133.924C158.704 133.194 162.229 133.317 165.263 134.531C167.028 135.236 175.887 140.454 183 144.701V126.294Z" fill="#FAC99E"/>
<path d="M131.99 123.192C131.99 123.192 131.991 123.192 131.991 123.192C131.991 123.192 131.99 123.192 131.99 123.192ZM131.988 123.192C131.906 123.192 131.825 123.191 131.742 123.191C131.825 123.191 131.906 123.192 131.988 123.192ZM130.65 123.173C130.507 123.17 130.361 123.166 130.215 123.162C130.361 123.166 130.507 123.17 130.65 123.173ZM136.686 122.636C136.699 122.633 136.711 122.63 136.723 122.626C136.711 122.63 136.699 122.633 136.686 122.636Z" fill="#A84829"/>
</g>
<defs>
<clipPath id="clip0_2785_2577">
<rect width="183" height="183" fill="white"/>
</clipPath>
</defs>
</svg>
