<svg width="210" height="195" viewBox="0 0 210 195" fill="none" xmlns="http://www.w3.org/2000/svg">
<circle cx="103.5" cy="97.5" r="97.5" fill="white"/>
<path d="M21 137H210L189 138H1L21 137Z" fill="#E2E2E2"/>
<path d="M151.859 131.221L151.355 123.467L153.761 123.311L154.11 128.67C154.148 129.306 153.933 129.932 153.511 130.41C153.089 130.888 152.495 131.18 151.859 131.221Z" fill="#828282"/>
<path d="M150.547 111.016L151.275 122.224L82.6892 126.681C82.0475 123.94 80.4544 121.516 78.1934 119.84C75.9323 118.164 73.15 117.344 70.3413 117.526C67.5326 117.709 64.8797 118.882 62.8547 120.837C60.8296 122.791 59.5636 125.401 59.2819 128.202L14.2097 131.13L13.4805 119.907L150.547 111.016Z" fill="#FF6A3A"/>
<path d="M151.277 122.224L151.458 125.004L83.0332 129.45L82.98 128.632C82.9381 127.975 82.8402 127.322 82.6875 126.681L116.982 124.452L151.277 122.224Z" fill="#FF6A3A"/>
<path d="M176.709 70.7677L147.859 69.6368L151.375 123.735L153.729 123.582L153.722 123.476C153.624 121.973 153.823 120.467 154.308 119.041C154.792 117.616 155.553 116.3 156.546 115.168C157.539 114.037 158.746 113.112 160.097 112.447C161.447 111.782 162.916 111.39 164.418 111.293C165.921 111.195 167.428 111.394 168.853 111.878C170.279 112.363 171.595 113.124 172.726 114.117C173.858 115.11 174.782 116.317 175.447 117.667C176.112 119.018 176.504 120.487 176.601 121.989L176.608 122.096L193.714 120.984L191.784 91.2758L176.709 70.7677Z" fill="#FF6A3A"/>
<path d="M192.531 102.807L190.18 102.96L190.534 108.414L192.885 108.261L192.531 102.807Z" fill="url(#paint0_linear_2823_3121)"/>
<path d="M155.595 84.5704L155.038 76.0063C155.02 75.7281 155.062 75.4493 155.159 75.1881C155.257 74.927 155.408 74.6893 155.604 74.4909C155.8 74.2924 156.035 74.1376 156.295 74.0366C156.555 73.9356 156.833 73.8907 157.112 73.9048L173.025 74.6792C173.557 74.7047 174.076 74.8445 174.548 75.089C175.021 75.3335 175.435 75.6771 175.762 76.0962L188.179 91.9263L175.03 92.7806L157.58 87.119C157.032 86.9421 156.549 86.6045 156.195 86.15C155.841 85.6955 155.632 85.1452 155.595 84.5704Z" fill="url(#paint1_linear_2823_3121)"/>
<path d="M163.316 93.9175L155.617 94.4178L155.675 95.3017L163.373 94.8014L163.316 93.9175Z" fill="url(#paint2_linear_2823_3121)"/>
<path d="M14.2109 131.13L59.2868 128.201C59.2214 128.857 59.2101 129.517 59.253 130.174L59.3061 130.992L14.3916 133.91L14.2109 131.13Z" fill="#FF6A3A"/>
<path d="M78.1731 135.303C81.6766 131.313 81.2819 125.238 77.2914 121.734C73.301 118.231 67.226 118.625 63.7225 122.616C60.2191 126.606 60.6138 132.681 64.6042 136.185C68.5946 139.688 74.6697 139.294 78.1731 135.303Z" fill="#626262"/>
<path d="M74.7132 132.265C76.5386 130.186 76.3329 127.02 74.2538 125.195C72.1747 123.37 69.0095 123.575 67.1841 125.654C65.3587 127.733 65.5644 130.899 67.6435 132.724C69.7226 134.549 72.8878 134.344 74.7132 132.265Z" fill="#828282"/>
<path d="M72.7621 128.843C72.7894 129.206 72.7081 129.569 72.5285 129.886C72.349 130.203 72.0794 130.46 71.7538 130.623C71.4283 130.786 71.0615 130.849 70.7001 130.804C70.3387 130.758 69.999 130.607 69.7241 130.368C69.4491 130.129 69.2514 129.813 69.156 129.462C69.0606 129.11 69.0718 128.738 69.1882 128.393C69.3046 128.048 69.521 127.745 69.8098 127.523C70.0986 127.301 70.4468 127.17 70.8103 127.147C71.2935 127.115 71.7696 127.276 72.1351 127.593C72.5005 127.911 72.7259 128.36 72.7621 128.843Z" fill="white"/>
<path d="M174.838 123.722C175.339 118.435 171.461 113.743 166.174 113.241C160.888 112.74 156.196 116.618 155.694 121.905C155.192 127.191 159.071 131.883 164.357 132.385C169.643 132.887 174.336 129.008 174.838 123.722Z" fill="#626262"/>
<path d="M170.192 123.62C170.648 120.891 168.805 118.309 166.076 117.853C163.347 117.397 160.765 119.24 160.31 121.969C159.854 124.698 161.697 127.28 164.426 127.735C167.154 128.191 169.736 126.348 170.192 123.62Z" fill="#828282"/>
<path d="M165.392 124.382C166.396 124.317 167.158 123.45 167.092 122.445C167.027 121.44 166.16 120.679 165.155 120.744C164.15 120.809 163.389 121.677 163.454 122.681C163.519 123.686 164.387 124.448 165.392 124.382Z" fill="white"/>
<path d="M9.83604 64.3807C9.44119 58.3039 14.0473 53.0576 20.1242 52.6627L131.622 45.4179C137.699 45.023 142.945 49.6292 143.34 55.706L146.748 108.154L13.244 116.829L9.83604 64.3807Z" fill="#FBA63C"/>
<path d="M9.82109 80.8419C9.74947 79.7396 10.585 78.788 11.6872 78.7164L63.5778 75.3447C64.68 75.2731 65.6316 76.1085 65.7032 77.2108L65.7681 78.2087C65.8397 79.3109 65.0042 80.2625 63.902 80.3342L12.0114 83.7059C10.9092 83.7775 9.95755 82.942 9.88593 81.8398L9.82109 80.8419Z" fill="white"/>
<path d="M1.12578 70.3837C1.05415 69.2815 1.88964 68.3299 2.99188 68.2583L54.8825 64.8865C55.9847 64.8149 56.9363 65.6504 57.0079 66.7527L57.0728 67.7505C57.1444 68.8528 56.3089 69.8044 55.2067 69.876L3.31609 73.2477C2.21384 73.3194 1.26224 72.4839 1.19062 71.3816L1.12578 70.3837Z" fill="white"/>
<path d="M10.5359 91.8187C10.4643 90.7165 11.2998 89.7649 12.402 89.6932L64.2926 86.3215C65.3949 86.2499 66.3465 87.0854 66.4181 88.1876L66.4829 89.1855C66.5545 90.2878 65.7191 91.2394 64.6168 91.311L12.7262 94.6827C11.624 94.7543 10.6724 93.9189 10.6008 92.8166L10.5359 91.8187Z" fill="white"/>
<path d="M3.2664 103.314C3.19478 102.212 4.03027 101.26 5.13251 101.189L57.0231 97.8171C58.1253 97.7455 59.0769 98.581 59.1486 99.6832L59.2134 100.681C59.285 101.783 58.4495 102.735 57.3473 102.807L5.45671 106.178C4.35447 106.25 3.40286 105.414 3.33124 104.312L3.2664 103.314Z" fill="white"/>
<defs>
<linearGradient id="paint0_linear_2823_3121" x1="5087.77" y1="5393.07" x2="5102.84" y2="5392.09" gradientUnits="userSpaceOnUse">
<stop stop-color="#FFC572"/>
<stop offset="1" stop-color="#FF4EB3"/>
</linearGradient>
<linearGradient id="paint1_linear_2823_3121" x1="173.246" y1="104.086" x2="171.264" y2="81.0219" gradientUnits="userSpaceOnUse">
<stop stop-color="#D2DFEF"/>
<stop offset="0.36" stop-color="#D9E3F0"/>
<stop offset="0.87" stop-color="#ECEFF1"/>
<stop offset="1" stop-color="#F2F2F2"/>
</linearGradient>
<linearGradient id="paint2_linear_2823_3121" x1="14350.6" y1="49.4629" x2="14512.2" y2="38.9632" gradientUnits="userSpaceOnUse">
<stop stop-color="#FFC572"/>
<stop offset="1" stop-color="#FF4EB3"/>
</linearGradient>
</defs>
</svg>
